<svg width="640" height="480" xmlns="http://www.w3.org/2000/svg" xmlns:svg="http://www.w3.org/2000/svg">
 <!-- Created with SVG-edit - http://svg-edit.googlecode.com/ -->
 <g>
  <title>Layer 1</title>
  <g id="svg_3">
   <path fill="#ffaaaa" stroke-width="2" d="m353.456161,364.424098c0,-21.756755 0,-34.237797 0,-55.994565c0,-30.615466 67.725125,-75.250908 111.641558,-106.541501c12.014744,-7.299836 33.617727,-10.130491 45.025336,-3.199552c10.132558,6.156247 9.367735,21.27414 1.316416,28.795739c-14.745211,13.651348 -29.490213,27.302631 -44.235424,40.95394c-7.390326,7.777162 10.744578,14.075189 21.591094,5.759225c56.630729,-47.244103 72.14018,-56.822396 72.14018,-75.828889c0,-38.820978 0,-38.287747 0,-77.108674c0,-11.114575 13.19297,-21.756794 30.048791,-21.756794c16.040549,0 29.990298,10.235129 29.990298,19.88257c0,62.710811 0,86.328508 0,149.03928c0,19.315066 -99.002821,77.739153 -99.002821,104.957894c0,6.399028 0,12.798042 0,19.197147c-56.185438,0 -112.371209,0 -168.556835,0c0.011994,-9.385282 0.029746,-18.770564 0.04174,-28.155808l-0.000333,-0.000013l0,0.000001zm-59.540439,0c0,-21.756832 0,-34.237797 0,-55.994565c0,-30.61553 -67.724938,-75.250908 -111.641412,-106.541501c-12.014723,-7.299836 -33.617707,-10.130491 -45.025294,-3.199552c-10.132745,6.156247 -9.367922,21.27414 -1.316624,28.795739c14.745231,13.651348 29.490255,27.302631 44.235466,40.95394c7.390284,7.777162 -10.74462,14.075189 -21.591156,5.759225c-56.630521,-47.244103 -72.14018,-56.822396 -72.14018,-75.828889c0,-38.820978 0,-38.287747 0,-77.108674c0,-11.114575 -13.192908,-21.756794 -30.048729,-21.756794c-16.040591,0 -29.990318,10.235129 -29.990318,19.88257c0,62.710811 0,86.328456 0,149.03928c0,19.315015 99.002841,77.739153 99.002841,104.957894c0,6.399028 0,12.798042 0,19.197147c56.185605,0 112.371188,0 168.556814,0c-0.011994,-9.385282 -0.029787,-18.770564 -0.041573,-28.155808l0.000166,-0.000013l-0.000001,0.000001zm-89.145332,-274.995617l101.078093,46.70913l0,73.269229l-101.078093,-46.709118l0,-73.269229l0,-0.000013l0,0.000001zm237.83077,0l-101.078093,46.70913l0,73.269229l101.078093,-46.709118l0,-73.269229l0,-0.000013l0,0.000001zm-237.83077,-22.896604l118.915395,-54.951925l118.915395,54.951899l-118.915395,54.951925l-118.915395,-54.951887l0,-0.000013l0,0.000001z" id="svg_1" stroke="#7f0000"/>
   <text fill="#7f007f" stroke-width="0" stroke-dasharray="null" stroke-linejoin="null" stroke-linecap="null" x="152.224519" y="436" id="svg_2" font-size="24" font-family="serif" text-anchor="middle" xml:space="preserve" font-weight="bold" font-style="italic" transform="matrix(3.1410445464444194,0,0,2.3956310153007507,-159.68874907628253,-594.8300737738609) " stroke="#7f0000">Martha Campos</text>
  </g>
 </g>
</svg>
